<svg id="Camada_2" data-name="Camada 2" xmlns="http://www.w3.org/2000/svg" viewBox="0 0 93.05 42.86"><defs><style>.cls-1{fill:#333;}.cls-2{fill:#2b1405;}.cls-3{fill:#666;}.cls-4{fill:#0f0601;}.cls-5{fill:#fff;opacity:0.2;}</style></defs><title>binoculares</title><path class="cls-1" d="M225.68,185.32a18,18,0,0,1-1.26,6.63c-.83,2.09-3.08,8-4.58,9.63-3.29,3.54-7,1.74-12.16,1.74-9.94,0-21-7.22-21-17.16,0-4.81,4.84-10,7.9-13.24a18,18,0,0,1,31.06,12.4Z" transform="translate(-185.08 -167.32)"/><path d="M229.87,178.26l-10.89,3,3.26,11.79,10.89-3a6.12,6.12,0,1,0-3.26-11.79Z" transform="translate(-185.08 -167.32)"/><path d="M222.89,191.27a18.91,18.91,0,1,1-18.9-18.9A18.91,18.91,0,0,1,222.89,191.27Z" transform="translate(-185.08 -167.32)"/><path class="cls-2" d="M220.6,191.27A16.62,16.62,0,1,1,204,174.66,16.62,16.62,0,0,1,220.6,191.27Z" transform="translate(-185.08 -167.32)"/><path class="cls-3" d="M18.78,8.5H19a1,1,0,0,1,1,1v2.27a1,1,0,0,1-1,1h-.24a1,1,0,0,1-1-1V9.45A1,1,0,0,1,18.78,8.5Z"/><path class="cls-3" d="M18.78,35.24H19a1,1,0,0,1,1,1v2.27a1,1,0,0,1-1,1h-.24a1,1,0,0,1-1-1V36.19A1,1,0,0,1,18.78,35.24Z"/><rect class="cls-3" x="3.44" y="22.88" width="4.18" height="2.15" rx="0.96"/><rect class="cls-3" x="30.19" y="22.88" width="4.18" height="2.15" rx="0.96"/><path class="cls-3" d="M194.49,180.26a1,1,0,0,0-1.35,0l-.17.17a1,1,0,0,0,0,1.35l1.61,1.6a1,1,0,0,0,1.35,0l.16-.17a.94.94,0,0,0,0-1.35Z" transform="translate(-185.08 -167.32)"/><path class="cls-3" d="M213.4,199.17a1,1,0,0,0-1.35,0l-.17.17a1,1,0,0,0,0,1.35l1.61,1.6a1,1,0,0,0,1.35,0l.16-.17a.94.94,0,0,0,0-1.35Z" transform="translate(-185.08 -167.32)"/><path class="cls-3" d="M193,200.77a1,1,0,0,0,0,1.35l.17.17a1,1,0,0,0,1.35,0l1.61-1.6a1,1,0,0,0,0-1.35l-.17-.17a1,1,0,0,0-1.35,0Z" transform="translate(-185.08 -167.32)"/><path class="cls-3" d="M211.88,181.86a1,1,0,0,0,0,1.35l.17.17a1,1,0,0,0,1.35,0l1.61-1.6a1,1,0,0,0,0-1.35l-.17-.17a1,1,0,0,0-1.35,0Z" transform="translate(-185.08 -167.32)"/><path class="cls-3" d="M197.45,204.26a1,1,0,0,0,.51,1.25l.22.09a1,1,0,0,0,1.25-.51l.87-2.1a1,1,0,0,0-.52-1.25l-.22-.09a1,1,0,0,0-1.25.52Z" transform="translate(-185.08 -167.32)"/><path class="cls-3" d="M207.68,179.56a1,1,0,0,0,.52,1.24l.22.1a1,1,0,0,0,1.25-.52l.86-2.1A1,1,0,0,0,210,177l-.22-.1a1,1,0,0,0-1.25.52Z" transform="translate(-185.08 -167.32)"/><path class="cls-3" d="M190.18,195.83a1,1,0,0,0-.52,1.25l.09.22a1,1,0,0,0,1.25.52l2.09-.87a1,1,0,0,0,.52-1.25l-.09-.22a1,1,0,0,0-1.25-.52Z" transform="translate(-185.08 -167.32)"/><path class="cls-3" d="M214.88,185.6a1,1,0,0,0-.51,1.25l.09.22a1,1,0,0,0,1.25.51l2.09-.86a1,1,0,0,0,.52-1.25l-.09-.22a1,1,0,0,0-1.25-.52Z" transform="translate(-185.08 -167.32)"/><path class="cls-3" d="M191,184.73a1,1,0,0,0-1.25.52l-.09.22a1,1,0,0,0,.52,1.25l2.09.86a1,1,0,0,0,1.25-.51l.09-.22a1,1,0,0,0-.52-1.25Z" transform="translate(-185.08 -167.32)"/><rect class="cls-3" x="215.27" y="194.3" width="2.15" height="4.18" rx="0.96" transform="translate(-232.78 154.21) rotate(-67.59)"/><path class="cls-3" d="M199.43,177.46a1,1,0,0,0-1.25-.51L198,177a1,1,0,0,0-.52,1.25l.87,2.09a1,1,0,0,0,1.25.52l.22-.09a1,1,0,0,0,.52-1.25Z" transform="translate(-185.08 -167.32)"/><path class="cls-3" d="M209.66,202.17a1,1,0,0,0-1.25-.52l-.21.09a1,1,0,0,0-.52,1.25l.87,2.1a1,1,0,0,0,1.24.51l.23-.09a1,1,0,0,0,.51-1.25Z" transform="translate(-185.08 -167.32)"/><path class="cls-1" d="M204,174.66a16.62,16.62,0,1,0,16.61,16.61A16.62,16.62,0,0,0,204,174.66Zm0,29.79a13.18,13.18,0,1,1,13.17-13.18A13.17,13.17,0,0,1,204,204.45Z" transform="translate(-185.08 -167.32)"/><path class="cls-3" d="M204,177a14.32,14.32,0,1,0,14.32,14.31A14.32,14.32,0,0,0,204,177Zm0,27.49a13.18,13.18,0,1,1,13.17-13.18A13.17,13.17,0,0,1,204,204.45Z" transform="translate(-185.08 -167.32)"/><path class="cls-4" d="M214.29,191.27A10.31,10.31,0,1,1,204,181,10.3,10.3,0,0,1,214.29,191.27Z" transform="translate(-185.08 -167.32)"/><path class="cls-1" d="M237.54,185.32a18,18,0,0,0,1.25,6.63c.83,2.09,3.08,8,4.59,9.63,3.29,3.54,7,1.74,12.16,1.74,9.94,0,21-7.22,21-17.16,0-4.81-4.83-10-7.9-13.24a18,18,0,0,0-31,12.4Z" transform="translate(-185.08 -167.32)"/><path d="M233.34,178.26l10.9,3L241,193.06l-10.9-3a6.12,6.12,0,1,1,3.26-11.79Z" transform="translate(-185.08 -167.32)"/><path d="M240.32,191.27a18.91,18.91,0,1,0,18.91-18.9A18.91,18.91,0,0,0,240.32,191.27Z" transform="translate(-185.08 -167.32)"/><path class="cls-2" d="M242.61,191.27a16.62,16.62,0,1,0,16.62-16.61A16.62,16.62,0,0,0,242.61,191.27Z" transform="translate(-185.08 -167.32)"/><path class="cls-3" d="M74,8.5h.24a1,1,0,0,1,1,1v2.27a1,1,0,0,1-1,1H74a1,1,0,0,1-1-1V9.45A1,1,0,0,1,74,8.5Z"/><path class="cls-3" d="M74,35.24h.24a1,1,0,0,1,1,1v2.27a1,1,0,0,1-1,1H74a1,1,0,0,1-1-1V36.19A1,1,0,0,1,74,35.24Z"/><rect class="cls-3" x="85.42" y="22.88" width="4.18" height="2.15" rx="0.96"/><rect class="cls-3" x="58.68" y="22.88" width="4.18" height="2.15" rx="0.96"/><path class="cls-3" d="M268.72,180.26a1,1,0,0,1,1.35,0l.17.17a1,1,0,0,1,0,1.35l-1.6,1.6a1,1,0,0,1-1.35,0l-.17-.17a1,1,0,0,1,0-1.35Z" transform="translate(-185.08 -167.32)"/><path class="cls-3" d="M249.81,199.17a1,1,0,0,1,1.35,0l.17.17a1,1,0,0,1,0,1.35l-1.6,1.6a1,1,0,0,1-1.35,0l-.17-.17a1,1,0,0,1,0-1.35Z" transform="translate(-185.08 -167.32)"/><path class="cls-3" d="M270.24,200.77a1,1,0,0,1,0,1.35l-.17.17a1,1,0,0,1-1.35,0l-1.6-1.6a1,1,0,0,1,0-1.35l.17-.17a1,1,0,0,1,1.35,0Z" transform="translate(-185.08 -167.32)"/><path class="cls-3" d="M251.33,181.86a1,1,0,0,1,0,1.35l-.17.17a1,1,0,0,1-1.35,0l-1.6-1.6a1,1,0,0,1,0-1.35l.17-.17a1,1,0,0,1,1.35,0Z" transform="translate(-185.08 -167.32)"/><path class="cls-3" d="M264.22,201.54h.24a1,1,0,0,1,1,1v2.27a1,1,0,0,1-1,1h-.24a1,1,0,0,1-1-1v-2.27a1,1,0,0,1,1-1Z" transform="translate(-242.72 -51.27) rotate(-22.39)"/><path class="cls-3" d="M255.53,179.56a.94.94,0,0,1-.51,1.24l-.22.1a1,1,0,0,1-1.25-.52l-.87-2.1a1,1,0,0,1,.52-1.24l.22-.1a1,1,0,0,1,1.25.52Z" transform="translate(-185.08 -167.32)"/><path class="cls-3" d="M271.46,194.3h.24a1,1,0,0,1,1,1v2.27a1,1,0,0,1-1,1h-.24a1,1,0,0,1-1-1v-2.27A1,1,0,0,1,271.46,194.3Z" transform="translate(-198.85 204.86) rotate(-67.51)"/><path class="cls-3" d="M246.75,184.07H247a1,1,0,0,1,1,1v2.27a1,1,0,0,1-1,1h-.24a1,1,0,0,1-1-1V185a1,1,0,0,1,1-1Z" transform="translate(-205.03 175.07) rotate(-67.37)"/><path class="cls-3" d="M270.45,185.08h2.27a1,1,0,0,1,1,1v.24a1,1,0,0,1-1,1h-2.27a1,1,0,0,1-1-1V186a1,1,0,0,1,1-1Z" transform="translate(-235.7 -49) rotate(-22.54)"/><path class="cls-3" d="M247.51,195a1,1,0,0,1,1.25.52l.09.22a1,1,0,0,1-.52,1.25l-2.09.87a1,1,0,0,1-1.25-.52l-.09-.22a1,1,0,0,1,.51-1.25Z" transform="translate(-185.08 -167.32)"/><path class="cls-3" d="M263.78,177.46A1,1,0,0,1,265,177l.22.09a1,1,0,0,1,.52,1.25l-.87,2.09a1,1,0,0,1-1.25.52l-.22-.09a1,1,0,0,1-.51-1.25Z" transform="translate(-185.08 -167.32)"/><path class="cls-3" d="M253.55,202.17a1,1,0,0,1,1.25-.52l.22.09a1,1,0,0,1,.52,1.25l-.87,2.1a1,1,0,0,1-1.25.51l-.22-.09a1,1,0,0,1-.52-1.25Z" transform="translate(-185.08 -167.32)"/><path class="cls-1" d="M242.61,191.27a16.62,16.62,0,1,0,16.62-16.61A16.62,16.62,0,0,0,242.61,191.27Zm3.44,0a13.18,13.18,0,1,1,13.18,13.18A13.18,13.18,0,0,1,246.05,191.27Z" transform="translate(-185.08 -167.32)"/><path class="cls-3" d="M244.91,191.27A14.32,14.32,0,1,0,259.23,177,14.32,14.32,0,0,0,244.91,191.27Zm1.14,0a13.18,13.18,0,1,1,13.18,13.18A13.18,13.18,0,0,1,246.05,191.27Z" transform="translate(-185.08 -167.32)"/><path class="cls-4" d="M248.92,191.27A10.31,10.31,0,1,0,259.23,181,10.3,10.3,0,0,0,248.92,191.27Z" transform="translate(-185.08 -167.32)"/><path class="cls-1" d="M238.36,184.31a6.76,6.76,0,1,1-6.75-6.75A6.75,6.75,0,0,1,238.36,184.31Z" transform="translate(-185.08 -167.32)"/><path class="cls-3" d="M235.94,184.31a4.34,4.34,0,1,1-4.33-4.33A4.33,4.33,0,0,1,235.94,184.31Z" transform="translate(-185.08 -167.32)"/><path class="cls-5" d="M198.87,203.41l17.26-17.26a13.33,13.33,0,0,0-2.57-3.91L195,200.84A13,13,0,0,0,198.87,203.41Z" transform="translate(-185.08 -167.32)"/><path class="cls-5" d="M193.62,199.38l18.48-18.47a13.17,13.17,0,0,0-7.91-2.8l-13.36,13.37A13.05,13.05,0,0,0,193.62,199.38Z" transform="translate(-185.08 -167.32)"/><path class="cls-5" d="M247.65,197.57l17.87-17.87a13.28,13.28,0,0,0-5.27-1.55l-14.14,14.14A13.1,13.1,0,0,0,247.65,197.57Z" transform="translate(-185.08 -167.32)"/><path class="cls-5" d="M272.4,191.27a13.12,13.12,0,0,0-4.4-9.8L249.42,200a13,13,0,0,0,12.17,4.18l10.58-10.58A13.22,13.22,0,0,0,272.4,191.27Z" transform="translate(-185.08 -167.32)"/></svg>