<svg xmlns="http://www.w3.org/2000/svg" viewBox="0 0 507.78 265.29"><defs><style>.cls-1{fill:#fff;}.cls-2,.cls-3,.cls-4,.cls-5,.cls-6,.cls-7{fill:none;stroke:#fff;stroke-miterlimit:10;}.cls-3{stroke-dasharray:4.87 2.92;}.cls-4{stroke-dasharray:5.21 3.13;}.cls-5{stroke-dasharray:5.14 3.08;}.cls-6{stroke-dasharray:5.26 3.16;}.cls-7{stroke-dasharray:4.97 2.98;}</style></defs><title>logo-nome</title><g id="Camada_1" data-name="Camada 1"><path class="cls-1" d="M878.18,394.63a103.11,103.11,0,1,1-.17-48.78q1.8,0,3.6,0a106.57,106.57,0,1,0,.18,48.81Z" transform="translate(-646 -237.94)"/><path class="cls-1" d="M891.45,394.71l.24-.13,0,0h-3.09c-.76,0-1.53,0-2.29,0a110.75,110.75,0,0,1-6.35,19.75c-.26.59-.54,1.17-.8,1.75a111,111,0,0,1-202.44,0c-.27-.58-.54-1.16-.8-1.75a111.17,111.17,0,0,1,0-87.52c.25-.59.53-1.17.79-1.76a111,111,0,0,1,202.44,0c.26.59.54,1.17.79,1.76a110.31,110.31,0,0,1,6.19,19c1.87,0,3.71.15,5.55.33l12.41-16.58L884,323.37l8.85-19.11-21-1.9,4.68-20.54-20.92,2.51.31-21.07L836,270.06l-4.07-20.66-18.09,10.79-8.29-19.35-15.45,14.31-12.13-17.21-12.13,17.21-15.45-14.31-8.28,19.35L724,249.4l-4.08,20.66L700,263.27l.31,21.06-20.92-2.5L684,302.36l-21,1.9,8.84,19.11-20.12,6.22,12.62,16.86L646,356.72l15.86,13.87L646,384.45l18.38,10.27-12.62,16.85,20.12,6.22-8.84,19.12,21,1.89-4.68,20.54,20.91-2.5-.3,21.05,19.93-6.79L724,491.76,742.06,481l8.29,19.36L765.79,486l12.14,17.22L790.06,486l15.44,14.32L813.79,481l18.09,10.8L836,471.09l19.93,6.8-.3-21.06,20.91,2.5-4.67-20.53,21-1.9L884,417.79l20.12-6.22Z" transform="translate(-646 -237.94)"/><path class="cls-1" d="M892.49,346h-3.14c1,.07,1.91.17,2.86.27Z" transform="translate(-646 -237.94)"/><path class="cls-1" d="M877.49,394.68h14.28l-.1-.12h-3.09c-3.69.06-7.38.07-11.08.06Z" transform="translate(-646 -237.94)"/></g><g id="Camada_3" data-name="Camada 3"><path class="cls-1" d="M1150.94,338.22c-14.06,0-25.5-7.08-25.5-15.79v-1.75H877.05c.93,1.15,1.86,2.33,2.73,3.51h240.13c1.34,9.24,13.27,16.63,28.2,17.47v57.85c-14.93.83-26.86,8.22-28.2,17.46H879.79c-.87,1.19-1.79,2.35-2.73,3.51h248.38v-1.75c0-8.71,11.44-15.79,25.5-15.79h2.84V338.22Z" transform="translate(-646 -237.94)"/><line class="cls-2" x1="242.57" y1="90.24" x2="245.02" y2="90.24"/><line class="cls-3" x1="247.94" y1="90.24" x2="464.62" y2="90.24"/><path class="cls-2" d="M1112.08,328.18h2.45a14.13,14.13,0,0,0,1.14,2.16" transform="translate(-646 -237.94)"/><path class="cls-4" d="M1117.49,332.89c3.13,3.85,9.17,9.05,20,11.52" transform="translate(-646 -237.94)"/><path class="cls-2" d="M1139,344.73c.78.16,1.59.29,2.41.42v2.45" transform="translate(-646 -237.94)"/><line class="cls-5" x1="495.39" y1="112.74" x2="495.39" y2="152.29"/><path class="cls-2" d="M1141.39,391.77v2.45s-.87.19-2.35.65" transform="translate(-646 -237.94)"/><path class="cls-6" d="M1136.06,395.9a54.49,54.49,0,0,0-19.75,12.71" transform="translate(-646 -237.94)"/><path class="cls-2" d="M1115.23,409.77c-.54.61-1.06,1.23-1.58,1.87h-2.45" transform="translate(-646 -237.94)"/><line class="cls-7" x1="462.22" y1="173.71" x2="249.19" y2="173.71"/><line class="cls-2" x1="247.7" y1="173.71" x2="245.25" y2="173.71"/></g><g id="Camada_5" data-name="Camada 5"><path class="cls-1" d="M836.26,351.05,852,390.11H839.34l-3.1-8H820l-3.14,8H806.57l16.08-39.06Zm-13.42,23.81h10.63l-5.27-13.71Z" transform="translate(-646 -237.94)"/><path class="cls-1" d="M857.37,351.05h23.38q6.29,0,9.45,1.2a13.51,13.51,0,0,1,5.22,3.43,7.74,7.74,0,0,1,2.06,5.44q0,6.48-9,8.66c3.48.61,6.08,1.82,7.83,3.64a8.45,8.45,0,0,1,2.61,5.92c0,2.93-1.43,5.45-4.27,7.58s-7.46,3.19-13.86,3.19H857.37ZM869.1,358v8.55H878c3.25,0,5.31-.5,6.15-1.5a4.53,4.53,0,0,0,1.27-2.87,3.51,3.51,0,0,0-1-2.56,4.53,4.53,0,0,0-2.29-1.35,28.62,28.62,0,0,0-4.93-.27Zm0,15.51v9.41h9q4.62,0,6.53-1.26a4,4,0,0,0,.08-6.78q-1.85-1.36-6.09-1.37Z" transform="translate(-646 -237.94)"/><path class="cls-1" d="M942.25,358.49H918.36v8h18.78v7.36H918.36v8.53h23.89v7.72H906.41V351.05h35.84Z" transform="translate(-646 -237.94)"/><path class="cls-1" d="M961.22,382.39h20v7.72H949.31V351.05h11.91Z" transform="translate(-646 -237.94)"/><path class="cls-1" d="M999.12,382.39h20v7.72H987.21V351.05h11.91Z" transform="translate(-646 -237.94)"/><path class="cls-1" d="M1043.22,390.71q-10.14,0-15.69-5.92a20.25,20.25,0,0,1-5.54-14.34,19.57,19.57,0,0,1,5.62-14.28q5.61-5.71,16-5.72t15.85,6.11a20.63,20.63,0,0,1,5.34,14,20.06,20.06,0,0,1-5.51,14.33Q1053.8,390.72,1043.22,390.71Zm.33-32.79q-9.25,0-9.25,12.65t9.25,12.67q9,0,9-12.64T1043.55,357.92Z" transform="translate(-646 -237.94)"/><path class="cls-1" d="M1107.16,359.64l-10,2.6q-2-4.64-8.54-4.63-7,0-7,3.51a2.91,2.91,0,0,0,1.3,2.38q1.3,1,5.9,1.69a71.37,71.37,0,0,1,11.23,2.44,14.1,14.1,0,0,1,6,4,8.91,8.91,0,0,1,2.44,6.11c0,3.52-1.74,6.58-5.23,9.15s-8.66,3.86-15.52,3.86a28.92,28.92,0,0,1-13.13-2.73,13.49,13.49,0,0,1-7.14-8.11l10.88-1.92q1.83,5.46,10.2,5.47a11.72,11.72,0,0,0,6-1.22,3.45,3.45,0,0,0,2-2.9,2.92,2.92,0,0,0-1.8-2.67,26.08,26.08,0,0,0-6.94-1.77q-9.58-1.55-13.66-4.22a8.8,8.8,0,0,1-4.07-7.83q0-5.21,4.86-8.78t13.21-3.58Q1102.94,350.45,1107.16,359.64Z" transform="translate(-646 -237.94)"/></g><g id="Camada_2" data-name="Camada 2"><path class="cls-1" d="M833.46,447.41c-2-2.49-40.42-51.56-59.37-77.54a.08.08,0,0,0-.14,0c-4.25,7.79-5.66,9.64-8.08,14.83-.13.26,56.74,65.64,67.54,62.83A.09.09,0,0,0,833.46,447.41Z" transform="translate(-646 -237.94)"/><path class="cls-1" d="M763,349.65a.26.26,0,0,0,0-.28c-8.46-13.28-8.62-18.13-9.64-21.32h0a15.41,15.41,0,0,0,3.68-2.4c7.65-6.62,7.91-18.88.55-27.37s-19.49-10-27.15-3.38-7.87,18.87-.53,27.36a21,21,0,0,0,16,7.47.23.23,0,0,1,.23.14c5.18,11.18,6.83,25.79,7.5,33a.25.25,0,0,0,.45.14C756.74,359,760.93,352.71,763,349.65ZM734.9,318c-5-5.72-5-13.82-.16-18.05s12.9-3,17.87,2.7,5,13.82.11,18S739.83,323.67,734.9,318Z" transform="translate(-646 -237.94)"/><path class="cls-1" d="M758.69,415.31a16.87,16.87,0,0,0-4-2,17.73,17.73,0,0,0-7.45-.81,21,21,0,0,0-15.15,9.34c-6.28,9.31-4.62,21.45,3.76,27.11a17.35,17.35,0,0,0,13.84,2.36,18.85,18.85,0,0,0,3.85-1.32,21.67,21.67,0,0,0,8.88-7.62C768.74,433.11,767.07,421,758.69,415.31ZM757,438.7c-4.25,6.28-12,8.43-17.4,4.81s-6.25-11.67-2-17.94,12-8.42,17.4-4.82S761.25,432.42,757,438.7Z" transform="translate(-646 -237.94)"/><path class="cls-1" d="M820.17,285.22c-13.49-2.59-70.79,87.1-70.79,87.1s4.25,16.67-2.21,40.59l7.38,1.41s2.64-16.64,13.79-36.88S820.17,285.22,820.17,285.22Zm-59.79,90.95a4.23,4.23,0,1,1,5-3.36A4.23,4.23,0,0,1,760.38,376.17Z" transform="translate(-646 -237.94)"/><path class="cls-1" d="M732.71,298.78l-6.38,3.68a51.71,51.71,0,0,1-4.7-13.74l3.7-1.44A48.8,48.8,0,0,0,732.71,298.78Z" transform="translate(-646 -237.94)"/></g></svg>