<svg id="Camada_1" data-name="Camada 1" xmlns="http://www.w3.org/2000/svg" viewBox="0 0 263.86 265.29"><defs><style>.cls-1{fill:#bfbfbf;}</style></defs><title>logo-gris-claro</title><g id="Camada_1-2" data-name="Camada 1"><path class="cls-1" d="M131.92,239.25a106.61,106.61,0,1,1,106.6-106.62v0A106.72,106.72,0,0,1,131.92,239.25Zm0-209.7A103.1,103.1,0,1,0,235,132.65h0A103.2,103.2,0,0,0,131.92,29.55Z" transform="translate(0.02 0)"/><path class="cls-1" d="M248,132.64l15.85-13.86-18.39-10.27,12.63-16.86L238,85.44l8.85-19.12-21-1.89,4.7-20.53-20.92,2.5.31-21.06L190,32.14l-4.07-20.66L167.79,22.26,159.5,2.9,144.05,17.22,131.92,0,119.79,17.22,104.34,2.9,96.06,22.26,78,11.47,73.89,32.13,54,25.34l.31,21L33.34,43.9,38,64.43,17,66.32l8.84,19.12L5.75,91.66l12.63,16.86L0,118.78l15.86,13.87L0,146.51,18.4,156.78,5.77,173.64l20.12,6.26L17.05,199l21,1.9-4.68,20.54,20.85-2.55L53.92,240l19.93-6.79,4.09,20.66L96,243l8.29,19.35,15.44-14.31,12.14,17.21L144,248.08l15.44,14.31L167.75,243l18.09,10.8,4.08-20.67,19.93,6.8-.3-21.07,20.91,2.51-4.63-20.5,21-1.9L238,179.9l20.12-6.21-12.63-16.86,18.39-10.27Zm-14,43.77c-.26.59-.54,1.16-.8,1.75a111,111,0,0,1-202.44,0c-.27-.59-.54-1.16-.8-1.75a111.14,111.14,0,0,1,0-87.52c.25-.6.53-1.18.79-1.76a111,111,0,0,1,202.44,0c.26.58.54,1.16.79,1.76a111.14,111.14,0,0,1,0,87.52Z" transform="translate(0.02 0)"/></g><g id="Camada_2" data-name="Camada 2"><path class="cls-1" d="M191.79,213.7c-1.95-2.48-40.41-51.55-59.37-77.54a.08.08,0,0,0-.11,0l0,0C128,144,126.63,145.8,124.2,151c-.12.26,56.75,65.64,67.55,62.83A.1.1,0,0,0,191.79,213.7Z" transform="translate(0.02 0)"/><path class="cls-1" d="M121.33,115.9a.22.22,0,0,0,0-.27c-8.45-13.28-8.61-18.13-9.64-21.32h0a16,16,0,0,0,3.69-2.4c7.65-6.63,7.9-18.88.54-27.37s-19.49-10-27.14-3.38S80.9,80,88.25,88.51a20.89,20.89,0,0,0,16,7.47.25.25,0,0,1,.23.15c5.17,11.17,6.83,25.79,7.5,33a.25.25,0,0,0,.27.23.25.25,0,0,0,.18-.1C115.08,125.25,119.22,119,121.33,115.9ZM93.22,84.25c-5-5.72-5-13.82-.16-18.06s12.91-3,17.88,2.7,5,13.83.11,18.06S98.22,90,93.22,84.25Z" transform="translate(0.02 0)"/><path class="cls-1" d="M117,181.61a16.64,16.64,0,0,0-4-2,17.61,17.61,0,0,0-7.45-.81,21.05,21.05,0,0,0-15.15,9.34c-6.28,9.31-4.61,21.45,3.77,27.11A17.35,17.35,0,0,0,108,217.61a18.78,18.78,0,0,0,3.84-1.33,21.51,21.51,0,0,0,8.89-7.61C127.08,199.41,125.4,187.27,117,181.61ZM115.33,205c-4.25,6.28-12,8.42-17.39,4.81s-6.26-11.67-2-17.94,12-8.42,17.39-4.82S119.58,198.72,115.33,205Z" transform="translate(0.02 0)"/><path class="cls-1" d="M178.51,51.52c-13.49-2.59-70.8,87.09-70.8,87.09s4.25,16.67-2.2,40.6l7.37,1.41s2.64-16.64,13.79-36.88S178.51,51.52,178.51,51.52Zm-59.79,90.95a4.23,4.23,0,1,1,5-3.36,4.24,4.24,0,0,1-5,3.36Z" transform="translate(0.02 0)"/><path class="cls-1" d="M91,65.08l-6.38,3.68A51.81,51.81,0,0,1,80,55l3.69-1.44A48.8,48.8,0,0,0,91,65.08Z" transform="translate(0.02 0)"/></g></svg>