<svg width="28" height="28" viewBox="0 0 28 28" fill="none" xmlns="http://www.w3.org/2000/svg">
<path fill-rule="evenodd" clip-rule="evenodd" d="M6.23281 4.25C5.8186 4.25 5.48281 4.58579 5.48281 5C5.48281 5.41421 5.8186 5.75 6.23281 5.75H13.9203V13.4808C13.9203 13.895 14.2561 14.2308 14.6703 14.2308H23.6126V18.2837C23.6126 19.2721 22.8211 20.0882 21.8419 20.1283C21.644 18.5654 20.3169 17.3173 18.6511 17.3173C16.9848 17.3173 15.6574 18.5662 15.4601 20.1298H12.7988C12.6015 18.5662 11.2741 17.3173 9.60775 17.3173C7.94144 17.3173 6.61402 18.5662 6.41673 20.1298H3.63672C3.2225 20.1298 2.88672 20.4656 2.88672 20.8798C2.88672 21.294 3.22251 21.6298 3.63672 21.6298H6.57742C7.01858 22.8776 8.19691 23.75 9.60775 23.75C11.0192 23.75 12.1875 22.8536 12.6317 21.6298H15.6253C16.077 22.88 17.2779 23.75 18.6511 23.75C20.0625 23.75 21.2309 22.8536 21.675 21.6298H21.7665C23.6086 21.6298 25.1126 20.1258 25.1126 18.2837V13.4808C25.1126 13.2501 25.0083 13.0437 24.8451 12.9065L19.8268 5.77976C19.6863 5.58026 19.4576 5.46156 19.2136 5.46156H15.4203V5C15.4203 4.58579 15.0845 4.25 14.6703 4.25H6.23281ZM15.4203 12.7308V6.96156H18.8244L22.8868 12.7308H15.4203ZM5.92984 7.58171C5.51563 7.58171 5.17984 7.9175 5.17984 8.33171C5.17984 8.74592 5.51563 9.08171 5.92984 9.08171H11.3385C11.7527 9.08171 12.0885 8.74592 12.0885 8.33171C12.0885 7.9175 11.7527 7.58171 11.3385 7.58171H5.92984ZM4.58856 11C4.17435 11 3.83856 11.3358 3.83856 11.75C3.83856 12.1643 4.17435 12.5 4.58856 12.5H9.99722C10.4114 12.5 10.7472 12.1643 10.7472 11.75C10.7472 11.3358 10.4114 11 9.99722 11H4.58856ZM3.80969 14.4183C3.39548 14.4183 3.05969 14.7541 3.05969 15.1683C3.05969 15.5825 3.39548 15.9183 3.80969 15.9183H9.21835C9.63256 15.9183 9.96835 15.5825 9.96835 15.1683C9.96835 14.7541 9.63256 14.4183 9.21835 14.4183H3.80969ZM7.8914 20.5336C7.8914 19.5981 8.64567 18.8173 9.60775 18.8173C10.5698 18.8173 11.3241 19.5981 11.3241 20.5336C11.3241 21.4691 10.5698 22.25 9.60775 22.25C8.63735 22.25 7.8914 21.504 7.8914 20.5336ZM16.9347 20.5336C16.9347 19.5981 17.689 18.8173 18.6511 18.8173C19.6132 18.8173 20.3674 19.5981 20.3674 20.5336C20.3674 21.4691 19.6132 22.25 18.6511 22.25C17.7156 22.25 16.9347 21.4957 16.9347 20.5336Z" fill="#333333"/>
</svg>
